<?xml version="1.0" encoding="utf-8"?>
<!-- Generator: Adobe Illustrator 23.0.3, SVG Export Plug-In . SVG Version: 6.00 Build 0)  -->
<svg version="1.1" id="レイヤー_1" xmlns="http://www.w3.org/2000/svg" xmlns:xlink="http://www.w3.org/1999/xlink" x="0px"
	 y="0px" viewBox="0 0 750 550" style="enable-background:new 0 0 750 550;" xml:space="preserve">
<g>
	<rect x="20.25" y="20.25" style="fill:#FFFFFF;" width="99.5" height="99.5"/>
	<path d="M119.5,20.5v99h-99v-99H119.5 M120,20H20v100h100V20L120,20z"/>
</g>
<g>
	<rect x="120.25" y="20.25" style="fill:#E0E0E0;" width="99.5" height="99.5"/>
	<path d="M219.5,20.5v99h-99v-99H219.5 M220,20H120v100h100V20L220,20z"/>
</g>
<g>
	<rect x="20.25" y="120.25" style="fill:#E0E0E0;" width="99.5" height="99.5"/>
	<path d="M119.5,120.5v99h-99v-99H119.5 M120,120H20v100h100V120L120,120z"/>
</g>
<g>
	<rect x="120.25" y="120.25" style="fill:#FFFFFF;" width="99.5" height="99.5"/>
	<path d="M219.5,120.5v99h-99v-99H219.5 M220,120H120v100h100V120L220,120z"/>
</g>
<g>
	<rect x="220.25" y="20.25" style="fill:#FFFFFF;" width="99.5" height="99.5"/>
	<path d="M319.5,20.5v99h-99v-99H319.5 M320,20H220v100h100V20L320,20z"/>
</g>
<g>
	<rect x="320.25" y="20.25" style="fill:#E0E0E0;" width="99.5" height="99.5"/>
	<path d="M419.5,20.5v99h-99v-99H419.5 M420,20H320v100h100V20L420,20z"/>
</g>
<g>
	<rect x="220.25" y="120.25" style="fill:#E0E0E0;" width="99.5" height="99.5"/>
	<path d="M319.5,120.5v99h-99v-99H319.5 M320,120H220v100h100V120L320,120z"/>
</g>
<g>
	<rect x="320.25" y="120.25" style="fill:#FFFFFF;" width="99.5" height="99.5"/>
	<path d="M419.5,120.5v99h-99v-99H419.5 M420,120H320v100h100V120L420,120z"/>
</g>
<g>
	<rect x="20.25" y="220.25" style="fill:#FFFFFF;" width="99.5" height="99.5"/>
	<path d="M119.5,220.5v99h-99v-99H119.5 M120,220H20v100h100V220L120,220z"/>
</g>
<g>
	<rect x="120.25" y="220.25" style="fill:#E0E0E0;" width="99.5" height="99.5"/>
	<path d="M219.5,220.5v99h-99v-99H219.5 M220,220H120v100h100V220L220,220z"/>
</g>
<g>
	<rect x="220.25" y="220.25" style="fill:#FFFFFF;" width="99.5" height="99.5"/>
	<path d="M319.5,220.5v99h-99v-99H319.5 M320,220H220v100h100V220L320,220z"/>
</g>
<g>
	<rect x="320.25" y="220.25" style="fill:#E0E0E0;" width="99.5" height="99.5"/>
	<path d="M419.5,220.5v99h-99v-99H419.5 M420,220H320v100h100V220L420,220z"/>
</g>
<g>
	<rect x="220.25" y="320.25" style="fill:#E0E0E0;" width="99.5" height="99.5"/>
	<path d="M319.5,320.5v99h-99v-99H319.5 M320,320H220v100h100V320L320,320z"/>
</g>
<g>
	<rect x="420.25" y="120.25" style="fill:#E0E0E0;" width="99.5" height="99.5"/>
	<path d="M519.5,120.5v99h-99v-99H519.5 M520,120H420v100h100V120L520,120z"/>
</g>
<g>
	<rect x="420.25" y="220.25" style="fill:#FFFFFF;" width="99.5" height="99.5"/>
	<path d="M519.5,220.5v99h-99v-99H519.5 M520,220H420v100h100V220L520,220z"/>
</g>
<g>
	<rect x="420.25" y="320.25" style="fill:#E0E0E0;" width="99.5" height="99.5"/>
	<path d="M519.5,320.5v99h-99v-99H519.5 M520,320H420v100h100V320L520,320z"/>
</g>
<g>
	<rect x="320.25" y="320.25" style="fill:#FFFFFF;" width="99.5" height="99.5"/>
	<path d="M419.5,320.5v99h-99v-99H419.5 M420,320H320v100h100V320L420,320z"/>
</g>
<g>
	<rect x="518.25" y="120.25" style="fill:#FFFFFF;" width="99.5" height="99.5"/>
	<path d="M617.5,120.5v99h-99v-99H617.5 M618,120H518v100h100V120L618,120z"/>
</g>
<g>
	<rect x="518.25" y="220.25" style="fill:#E0E0E0;" width="99.5" height="99.5"/>
	<path d="M617.5,220.5v99h-99v-99H617.5 M618,220H518v100h100V220L618,220z"/>
</g>
<g>
	<rect x="518.25" y="320.25" style="fill:#FFFFFF;" width="99.5" height="99.5"/>
	<path d="M617.5,320.5v99h-99v-99H617.5 M618,320H518v100h100V320L618,320z"/>
</g>
<g>
	<g>
		<g>
			<line style="fill:none;stroke:#FF6F00;stroke-width:14;stroke-miterlimit:10;" x1="459.1" y1="69.5" x2="437" y2="69.5"/>
			<g>
				<polygon style="fill:#FF6F00;" points="456.25,90.76 456.25,48.24 477.5,69.5 				"/>
			</g>
		</g>
	</g>
	
		<text transform="matrix(1 0 0 1 491.8906 87.1016)" style="fill:#FF6F00; font-family:'NotoSansCJKjp-Bold-90ms-RKSJ-H'; font-size:46.1095px;">①</text>
</g>
<g>
	<g>
		<g>
			<line style="fill:none;stroke:#7E57C2;stroke-width:14;stroke-miterlimit:10;" x1="655.1" y1="169.5" x2="633" y2="169.5"/>
			<g>
				<polygon style="fill:#7E57C2;" points="652.25,190.76 652.25,148.24 673.5,169.5 				"/>
			</g>
		</g>
	</g>
	
		<text transform="matrix(1 0 0 1 687.8906 187.1016)" style="fill:#7E57C2; font-family:'NotoSansCJKjp-Bold-90ms-RKSJ-H'; font-size:46.1095px;">②</text>
</g>
<g>
	<g>
		<g>
			<line style="fill:none;stroke:#0288D1;stroke-width:14;stroke-miterlimit:10;" x1="655.1" y1="269.5" x2="633" y2="269.5"/>
			<g>
				<polygon style="fill:#0288D1;" points="652.25,290.76 652.25,248.24 673.5,269.5 				"/>
			</g>
		</g>
	</g>
	
		<text transform="matrix(1 0 0 1 687.8906 287.1016)" style="fill:#0288D1; font-family:'NotoSansCJKjp-Bold-90ms-RKSJ-H'; font-size:46.1095px;">③</text>
</g>
<g>
	<g>
		<g>
			<line style="fill:none;stroke:#388E3C;stroke-width:14;stroke-miterlimit:10;" x1="655.1" y1="369.5" x2="633" y2="369.5"/>
			<g>
				<polygon style="fill:#388E3C;" points="652.25,390.76 652.25,348.24 673.5,369.5 				"/>
			</g>
		</g>
	</g>
	
		<text transform="matrix(1 0 0 1 687.8906 387.1016)" style="fill:#388E3C; font-family:'NotoSansCJKjp-Bold-90ms-RKSJ-H'; font-size:46.1095px;">④</text>
</g>
<g>
	<g>
		<g>
			
				<line style="fill:none;stroke:#F44336;stroke-width:14;stroke-miterlimit:10;" x1="570.25" y1="458.35" x2="570.25" y2="436.25"/>
			<g>
				<polygon style="fill:#F44336;" points="548.99,455.5 591.51,455.5 570.25,476.75 				"/>
			</g>
		</g>
	</g>
	
		<text transform="matrix(1 0 0 1 546.8359 527.1016)" style="fill:#F44336; font-family:'NotoSansCJKjp-Bold-90ms-RKSJ-H'; font-size:46.1095px;">⑤</text>
</g>
<g>
	<g>
		<g>
			
				<line style="fill:none;stroke:#6D4C41;stroke-width:14;stroke-miterlimit:10;" x1="470.25" y1="458.35" x2="470.25" y2="436.25"/>
			<g>
				<polygon style="fill:#6D4C41;" points="448.99,455.5 491.51,455.5 470.25,476.75 				"/>
			</g>
		</g>
	</g>
	
		<text transform="matrix(1 0 0 1 446.8359 527.1016)" style="fill:#6D4C41; font-family:'NotoSansCJKjp-Bold-90ms-RKSJ-H'; font-size:46.1095px;">⑥</text>
</g>
<g>
	<g>
		<g>
			
				<line style="fill:none;stroke:#EC407A;stroke-width:14;stroke-miterlimit:10;" x1="370.25" y1="458.35" x2="370.25" y2="436.25"/>
			<g>
				<polygon style="fill:#EC407A;" points="348.99,455.5 391.51,455.5 370.25,476.75 				"/>
			</g>
		</g>
	</g>
	
		<text transform="matrix(1 0 0 1 346.8359 527.1016)" style="fill:#EC407A; font-family:'NotoSansCJKjp-Bold-90ms-RKSJ-H'; font-size:46.1095px;">⑦</text>
</g>
<g>
	<g>
		<g>
			
				<line style="fill:none;stroke:#01579B;stroke-width:14;stroke-miterlimit:10;" x1="270.25" y1="458.35" x2="270.25" y2="436.25"/>
			<g>
				<polygon style="fill:#01579B;" points="248.99,455.5 291.51,455.5 270.25,476.75 				"/>
			</g>
		</g>
	</g>
	
		<text transform="matrix(1 0 0 1 246.8359 527.1016)" style="fill:#01579B; font-family:'NotoSansCJKjp-Bold-90ms-RKSJ-H'; font-size:46.1095px;">⑧</text>
</g>
<g>
	<g>
		<g>
			
				<line style="fill:none;stroke:#00838F;stroke-width:14;stroke-miterlimit:10;" x1="170.25" y1="359.35" x2="170.25" y2="337.25"/>
			<g>
				<polygon style="fill:#00838F;" points="148.99,356.5 191.51,356.5 170.25,377.75 				"/>
			</g>
		</g>
	</g>
	
		<text transform="matrix(1 0 0 1 146.8359 428.1016)" style="fill:#00838F; font-family:'NotoSansCJKjp-Bold-90ms-RKSJ-H'; font-size:46.1095px;">⑨</text>
</g>
<g>
	<g>
		<g>
			<line style="fill:none;stroke:#558B2F;stroke-width:14;stroke-miterlimit:10;" x1="70.25" y1="359.35" x2="70.25" y2="337.25"/>
			<g>
				<polygon style="fill:#558B2F;" points="48.99,356.5 91.51,356.5 70.25,377.75 				"/>
			</g>
		</g>
	</g>
	
		<text transform="matrix(1 0 0 1 46.8359 428.1016)" style="fill:#558B2F; font-family:'NotoSansCJKjp-Bold-90ms-RKSJ-H'; font-size:46.1095px;">⑩</text>
</g>
</svg>
